<svg xmlns="http://www.w3.org/2000/svg" version="1.1" xmlns:xlink="http://www.w3.org/1999/xlink" xmlns:svgjs="http://svgjs.dev/svgjs" width="1500" height="1500" viewBox="0 0 1500 1500"><rect width="1500" height="1500" fill="#ffffff"></rect><g transform="matrix(0.6666666666666666,0,0,0.6666666666666666,249.39393939393938,580.6569267947125)"><svg viewBox="0 0 396 134" data-background-color="#ffffff" preserveAspectRatio="xMidYMid meet" height="507" width="1500" xmlns="http://www.w3.org/2000/svg" xmlns:xlink="http://www.w3.org/1999/xlink"><g id="tight-bounds" transform="matrix(1,0,0,1,0.2400000000000091,0.13601127073525277)"><svg viewBox="0 0 395.52 133.7279774585295" height="133.7279774585295" width="395.52"><g><svg viewBox="0 0 670.4252068943599 226.6752805299326" height="133.7279774585295" width="395.52"><g transform="matrix(1,0,0,1,0,39.31961097964165)"><svg viewBox="0 0 395.52 148.0360585706493" height="148.0360585706493" width="395.52"><g id="textblocktransform"><svg viewBox="0 0 395.52 148.0360585706493" height="148.0360585706493" width="395.52" id="textblock"><g><svg viewBox="0 0 395.52 102.1491518926689" height="102.1491518926689" width="395.52"><g transform="matrix(1,0,0,1,0,0)"><svg width="395.52" viewBox="2 -38.43 201.84 52.64" height="102.1491518926689" data-palette-color="#1e55b3"><g class="wordmark-text-0" data-fill-palette-color="primary" id="text-0"><path d="M2-1.27L2-1.27 2.25-35.64Q2.78-37.45 6.45-37.45L6.45-37.45Q9.81-37.45 12.65-36.55 15.48-35.64 17.41-33.52 19.34-31.4 19.34-28.42L19.34-28.42Q19.34-26.07 18.19-23.88 17.04-21.68 15.38-21.04L15.38-21.04Q18.51-20.61 20.41-17.29 22.31-13.96 22.31-9.42L22.31-9.42Q22.31-6.35 19.87-4.08 17.43-1.81 14.18-0.81 10.94 0.2 7.62 0.2L7.62 0.2Q3.56 0.2 2-1.27ZM6.01-18.36L6.01-18.36Q6.01-14.99 5.91-4.83L5.91-4.83Q7.37-3.17 9.67-3.17L9.67-3.17Q12.7-3.17 15.53-5.69 18.36-8.2 18.36-11.08L18.36-11.08Q18.36-14.65 15.97-16.65 13.57-18.65 9.81-18.65L9.81-18.65Q7.32-18.65 6.01-18.36ZM5.91-21.97L5.91-21.97 8.94-22.02Q12.06-22.02 13.75-23.85 15.43-25.68 15.43-28.22L15.43-28.22Q15.43-30.81 13.72-32.69 12.01-34.57 8.98-34.57L8.98-34.57Q7.62-34.57 5.76-33.98L5.76-33.98Q5.86-31.01 5.88-26.61 5.91-22.22 5.91-21.97ZM42.38-18.6L42.38-18.6 40.23-18.75Q39.21-21.48 36.77-21.48L36.77-21.48Q35.69-21.48 34.49-21 33.3-20.51 32.52-20 31.74-19.48 30.47-18.51L30.47-18.51Q30.47-17.82 30.44-14.06 30.42-10.3 30.49-5.71 30.56-1.12 30.66-0.78L30.66-0.78Q30.22 0.68 28.95 0.68L28.95 0.68Q28.07 0.68 27.27-0.02 26.46-0.73 26.27-1.76L26.27-1.76Q27.19-17.43 27.93-25.44L27.93-25.44 30.12-24.95 30.27-21.68Q33.69-24.51 36.13-24.51L36.13-24.51Q38.82-24.51 40.65-23.29 42.48-22.07 42.48-19.73L42.48-19.73Q42.48-18.99 42.38-18.6ZM46.19-21.09L46.19-21.09 45.21-23.58Q46.48-24.85 48.43-25.61 50.39-26.37 52.29-26.37L52.29-26.37Q60.54-26.37 60.54-12.11L60.54-12.11Q60.54-10.16 60.32-6.35 60.1-2.54 60.1-0.63L60.1-0.63Q59.71 0.88 58.59 0.88L58.59 0.88Q57.71 0.88 56.98 0 56.25-0.88 56.25-1.95L56.25-1.95Q56.25-2.29 56.29-2.44L56.29-2.44Q53.27 0.49 49.85 0.49L49.85 0.49Q47.26 0.49 45.33-1.39 43.4-3.27 43.4-5.96L43.4-5.96Q43.4-10.5 46.94-14.16 50.48-17.82 54.98-17.82L54.98-17.82Q55.17-17.82 55.37-17.8 55.56-17.77 55.83-17.72 56.1-17.68 56.25-17.68L56.25-17.68Q55.85-23.39 51.7-23.39L51.7-23.39Q49.26-23.39 46.19-21.09ZM56.39-5.81L56.39-5.81Q56.49-9.23 56.49-10.99L56.49-10.99Q56.49-12.45 56.39-15.09L56.39-15.09 56-15.09Q52.53-15.04 49.68-12.5 46.82-9.96 46.82-6.35L46.82-6.35Q46.82-4.79 47.77-3.86 48.73-2.93 50.09-2.93L50.09-2.93Q52.24-2.93 56.39-5.81ZM67.81-19.53L67.81-19.53 68.01-0.2Q67.28 0.2 66.25 0.2L66.25 0.2Q65.47 0.2 64.49-0.05L64.49-0.05Q64.64-3.13 64.69-12.16 64.74-21.19 65.08-25.54L65.08-25.54 67.28-25.05 67.42-22.31Q70.01-25.05 73.38-25.05L73.38-25.05Q75.09-25.05 76.12-24.8 77.14-24.56 78.09-23.61 79.05-22.66 79.53-21.09 80.02-19.53 80.41-16.63 80.8-13.72 80.97-9.84 81.14-5.96 81.19-0.05L81.19-0.05Q80.9 0.05 80.07 0.05L80.07 0.05Q78.31 0.05 77.34-0.39L77.34-0.39Q77.14-1.17 77.14-2.98L77.14-2.98Q77.14-3.91 77.21-6.47 77.29-9.03 77.29-10.45L77.29-10.45Q77.29-12.79 77.12-14.55 76.95-16.31 76.48-18.02 76.02-19.73 75.07-20.65 74.11-21.58 72.7-21.58L72.7-21.58Q71.09-21.58 70.18-21.34 69.28-21.09 68.91-20.75 68.55-20.41 67.81-19.53ZM103.36-37.3L102.72 1.27 100.04 0.73Q100.04-0.24 99.99-0.73L99.99-0.73Q97.4 0.93 94.52 0.93L94.52 0.93Q90.08 0.93 87.61-2.88 85.15-6.69 85.15-11.52L85.15-11.52Q85.15-14.01 85.51-16.21 85.88-18.41 86.78-20.73 87.69-23.05 89.61-24.41 91.54-25.78 94.28-25.78L94.28-25.78Q96.96-25.78 99.31-24.46L99.31-24.46Q99.7-29.64 99.7-34.91L99.7-34.91Q99.7-37.3 99.65-38.43L99.65-38.43Q101.99-37.99 103.36-37.3L103.36-37.3ZM99.6-3.96L99.6-3.96 99.45-19.68Q98.87-20.9 97.62-21.61 96.38-22.31 94.96-22.31L94.96-22.31Q93.06-22.31 91.71-21.09 90.37-19.87 89.81-17.85 89.25-15.82 89.03-14.06 88.81-12.3 88.81-10.35L88.81-10.35Q88.81-2.05 94.37-2.05L94.37-2.05Q96.23-2.05 97.77-2.56 99.31-3.08 99.6-3.96Z" fill="#1e55b3" data-fill-palette-color="primary"></path><path d="M118.69-2.78L118.69-2.78 119.37-5.52Q123.62-3.22 127.72-3.22L127.72-3.22Q130.65-3.22 132.73-4.42 134.8-5.62 134.8-8.3L134.8-8.3Q134.8-10.69 133.05-12.67 131.29-14.65 128.8-16.16 126.31-17.68 123.82-19.26 121.33-20.85 119.57-23.17 117.81-25.49 117.81-28.32L117.81-28.32Q117.81-31.79 120.3-34.64 122.79-37.5 126.31-37.5L126.31-37.5Q128.99-37.5 132.29-36.43 135.58-35.35 137.83-34.28L137.83-34.28 137.24-32.32Q131.68-34.23 127.87-34.23L127.87-34.23Q125.53-34.23 123.87-32.71 122.21-31.2 122.21-28.81L122.21-28.81Q122.21-27 123.13-25.54 124.06-24.07 125.55-23 127.04-21.92 128.87-20.9 130.7-19.87 132.51-18.7 134.31-17.53 135.8-16.16 137.29-14.79 138.22-12.72 139.15-10.64 139.15-8.06L139.15-8.06Q139.15-4.39 136.8-2.08 134.46 0.24 130.7 0.24L130.7 0.24Q127.48 0.24 123.84-0.66 120.2-1.56 118.69-2.78ZM141.88-35.16L141.88-35.16 144.42-34.57Q144.57-32.57 144.64-28.17 144.71-23.78 144.81-22.12L144.81-22.12Q147.45-24.9 151.16-24.9L151.16-24.9Q154.48-24.9 156.9-22.56 159.31-20.21 159.31-16.31L159.31-16.31 159.31-0.24Q158.68 0.05 157.7 0.05L157.7 0.05Q156.63 0.05 155.75-0.15L155.75-0.15Q155.75-0.54 155.77-1.34 155.8-2.15 155.8-2.54L155.8-2.54Q155.8-4.44 155.65-9.11 155.5-13.77 155.5-16.89L155.5-16.89Q154.77-21.39 150.96-21.39L150.96-21.39Q149.3-21.39 147.69-20.48 146.08-19.58 145.35-18.36L145.35-18.36Q145.49-15.28 145.54-9.08 145.59-2.88 145.69-0.15L145.69-0.15Q144.52 0.05 143.69 0.05L143.69 0.05Q142.47 0.05 141.64-0.24L141.64-0.24Q141.73-2.64 141.73-7.81L141.73-7.81Q141.73-10.11 141.69-16.24 141.64-22.36 141.66-26.78 141.69-31.2 141.88-35.16ZM163.31-10.4L163.31-10.4Q163.31-12.35 163.73-14.75 164.14-17.14 164.97-19.78 165.8-22.41 167.46-24.17 169.12-25.93 171.32-25.93L171.32-25.93Q176.01-25.93 178.84-21.7 181.67-17.48 181.67-12.3L181.67-12.3Q181.67-10.11 181.21-7.93 180.75-5.76 179.77-3.66 178.79-1.56 176.96-0.17 175.13 1.22 172.69 1.42L172.69 1.42Q168.2 0.83 165.75-2.42 163.31-5.66 163.31-10.4ZM171.61-23.39L171.61-23.39Q169.91-23.19 168.73-20.26 167.56-17.33 167.22-14.58 166.88-11.82 166.88-9.72L166.88-9.72Q166.88-6.98 168.56-4.66 170.25-2.34 172.35-2.34L172.35-2.34Q173.86-2.34 175.08-3.52 176.3-4.69 177.01-6.42 177.72-8.15 178.08-9.91 178.45-11.67 178.45-13.04L178.45-13.04Q178.45-17.04 176.64-20.02 174.84-23 171.61-23.39ZM185.63 11.77L186.21-25.68 188.95-25.2Q188.95-24.17 188.99-23.68L188.99-23.68Q191.68-25.39 194.41-25.39L194.41-25.39Q198.86-25.39 201.35-21.58 203.84-17.77 203.84-12.94L203.84-12.94Q203.84-10.5 203.47-8.28 203.11-6.05 202.18-3.74 201.25-1.42 199.32-0.02 197.39 1.37 194.66 1.37L194.66 1.37Q192.07 1.37 189.68 0L189.68 0Q189.87 8.54 190.02 12.7L190.02 12.7Q189.58 14.21 188.31 14.21L188.31 14.21Q187.43 14.21 186.63 13.5 185.82 12.79 185.63 11.77L185.63 11.77ZM189.39-20.51L189.39-20.51 189.53-4.74Q190.12-3.56 191.34-2.86 192.56-2.15 194.02-2.15L194.02-2.15Q195.93-2.15 197.27-3.37 198.61-4.59 199.18-6.62 199.74-8.64 199.96-10.4 200.18-12.16 200.18-14.11L200.18-14.11Q200.18-22.41 194.56-22.41L194.56-22.41Q192.75-22.41 191.22-21.9 189.68-21.39 189.39-20.51Z" fill="#ff585f" data-fill-palette-color="secondary"></path></g></svg></g></svg></g><g transform="matrix(1,0,0,1,163.310208,126.2641150748826)"><svg viewBox="0 0 232.209792 21.771943495766696" height="21.771943495766696" width="232.209792"><g transform="matrix(1,0,0,1,0,0)"><svg width="232.209792" viewBox="3.05 -33.75 478.3 44.85" height="21.771943495766696" data-palette-color="#ff585f"><path d="M24.1-6.8Q25.05-6.8 25.53-6.08 26-5.35 26-4.5L26-4.5Q26-3.45 25.68-3.03 25.35-2.6 24.45-2.15L24.45-2.15Q22.35-1.15 19.25-0.55 16.15 0.05 12.6 0.05L12.6 0.05Q8.15 0.05 6.08-1.45 4-2.95 3.53-5.08 3.05-7.2 3.05-10.65L3.05-10.65Q3.05-14.35 3.35-17.93 3.65-21.5 4.4-27.05L4.4-27.05Q4.75-29.45 6.3-30.53 7.85-31.6 9.7-31.6L9.7-31.6Q11.25-31.6 14.75-31.7L14.75-31.7 19.1-31.75Q21.8-31.75 23-31.6L23-31.6Q24.5-31.3 25.23-30.93 25.95-30.55 25.95-29.65L25.95-29.65Q25.95-28.65 25.28-27.7 24.6-26.75 23.25-26.75L23.25-26.75Q21.7-26.75 18.8-26.95L18.8-26.95Q15.9-27.15 14.45-27.15L14.45-27.15Q13.2-27.15 12-27L12-27Q10.6-26.9 10-26.65 9.4-26.4 9.3-25.8L9.3-25.8Q8.6-20.65 8.6-18.2L8.6-18.2Q9.75-18.05 10.85-18.05L10.85-18.05Q12.25-18.05 13.85-18.2 15.45-18.35 15.9-18.4L15.9-18.4Q18.55-18.65 20.45-18.65L20.45-18.65Q21.55-18.65 22.13-18.25 22.7-17.85 22.7-17.15L22.7-17.15Q22.7-16.05 22.13-15.45 21.55-14.85 20.1-14.55L20.1-14.55Q18.35-14.2 15.78-14 13.2-13.8 10.75-13.8L10.75-13.8Q9.9-13.8 8.4-13.9L8.4-13.9Q8.25-10.85 8.25-8.25L8.25-8.25Q8.25-4.7 12.95-4.7L12.95-4.7Q15.45-4.7 17.1-5.05 18.75-5.4 20.9-6.05L20.9-6.05Q22.9-6.8 24.1-6.8L24.1-6.8ZM47.15-22.05Q48.15-22.05 48.72-21.58 49.3-21.1 49.3-20.4L49.3-20.4Q49.3-19.9 49.12-19.38 48.95-18.85 48.75-18.3L48.75-18.3Q47.6-15.6 43.9-10.75L43.9-10.75Q47.7-5.85 50.05-4.45L50.05-4.45Q50.25-4.35 50.8-4.1 51.35-3.85 51.67-3.5 52-3.15 52-2.7L52-2.7Q52-1.6 51.17-0.93 50.35-0.25 49.2-0.25L49.2-0.25Q47.25-0.25 44.95-2.43 42.65-4.6 41.05-7L41.05-7Q39.9-5.25 38.42-3.53 36.95-1.8 35.7-0.6L35.7-0.6Q35.2-0.05 34.52 0.25 33.85 0.55 33.2 0.55L33.2 0.55Q32.3 0.55 31.6 0.15 30.9-0.25 30.9-1.25L30.9-1.25Q30.9-1.5 31.25-2.08 31.6-2.65 31.65-2.75L31.65-2.75Q32.25-3.8 33.25-4.93 34.25-6.05 34.5-6.35L34.5-6.35Q35.1-7.1 35.8-7.8L35.8-7.8Q36.2-8.25 37-9.2 37.8-10.15 38.1-10.7L38.1-10.7 36.35-13.1Q35.1-14.55 34.2-15.43 33.3-16.3 32.75-16.3L32.75-16.3Q31.95-16.3 31.25-15.85L31.25-15.85Q30.65-15.45 30.05-15.45L30.05-15.45Q29.4-15.45 29.05-15.78 28.7-16.1 28.7-16.5L28.7-16.5Q28.7-18.2 30.05-19.43 31.4-20.65 33.45-20.65L33.45-20.65Q35.4-20.65 36.92-19.33 38.45-18 39.95-15.8L39.95-15.8Q40.15-15.6 40.4-15.15 40.65-14.7 40.9-14.4L40.9-14.4Q41.45-15.2 42.9-17.5L42.9-17.5Q44.45-20.25 44.75-20.65L44.75-20.65Q45.8-22.05 47.15-22.05L47.15-22.05ZM56.14-17.4Q55.7-17.4 55.3-17.32 54.89-17.25 54.49-17.25L54.49-17.25Q53.95-17.25 53.47-17.75 52.99-18.25 52.99-18.65L52.99-18.65Q52.99-19.95 54.3-20.68 55.59-21.4 56.95-21.4L56.95-21.4Q58.09-21.4 59.32-20.63 60.55-19.85 61.14-18.65L61.14-18.65Q62.45-20.2 64.34-20.9 66.25-21.6 68.3-21.6L68.3-21.6Q70.59-21.6 72.57-20.15 74.55-18.7 75.69-16.48 76.84-14.25 76.84-12.05L76.84-12.05Q76.84-9.9 76.39-8.22 75.94-6.55 74.8-4.85L74.8-4.85Q73.5-3.05 71.32-1.9 69.14-0.75 66.14-0.75L66.14-0.75Q65.34-0.75 64.19-1.18 63.05-1.6 62.3-2.1L62.3-2.1Q61.95 1.3 61.95 3.8L61.95 3.8Q61.95 5.3 62.09 6.65L62.09 6.65Q62.2 8.25 62.2 8.95L62.2 8.95Q62.2 10.05 61.45 10.58 60.7 11.1 59.8 11.1L59.8 11.1Q57.99 11.1 57.42 10.13 56.84 9.15 56.84 7.35L56.84 7.35Q57.05 3.05 57.34-0.6L57.34-0.6Q57.64-5.1 57.64-14.5L57.64-14.5Q57.64-15.4 57.3-16.4 56.95-17.4 56.14-17.4L56.14-17.4ZM62.49-7.05Q62.74-6.1 63.92-5.48 65.09-4.85 66.05-4.85L66.05-4.85Q68.89-4.85 70.3-6.4L70.3-6.4Q71.34-7.5 71.67-8.55 72-9.6 72-11.9L72-11.9Q72-13.7 71.3-14.93 70.59-16.15 69.59-16.73 68.59-17.3 67.69-17.3L67.69-17.3Q65.64-17.3 64.37-16.07 63.09-14.85 62.74-12.75L62.74-12.75Q62.49-11.1 62.49-7.05L62.49-7.05ZM87.04-7.75Q87.04-5.85 87.62-4.83 88.19-3.8 89.09-3.8L89.09-3.8Q89.59-3.8 90.04-3.88 90.49-3.95 90.94-3.95L90.94-3.95Q91.44-3.95 91.82-3.45 92.19-2.95 92.19-2.35L92.19-2.35Q92.19-1.15 91.07-0.48 89.94 0.2 88.04 0.2L88.04 0.2Q86.69 0.2 85.32-0.63 83.94-1.45 83.04-3.23 82.14-5 82.14-7.65L82.14-7.65Q82.14-13.35 82.34-17.3L82.34-17.3Q82.59-22 82.59-29.15L82.59-29.15Q82.59-31.4 82.84-32.3L82.84-32.3Q83.14-33 83.82-33.38 84.49-33.75 85.24-33.75L85.24-33.75Q85.99-33.75 86.57-33.5 87.14-33.25 87.34-32.7L87.34-32.7Q87.54-32.1 87.62-31.53 87.69-30.95 87.69-29.9L87.69-29.9Q87.69-27.85 87.54-25.95L87.54-25.95Q87.44-23.65 87.44-22.6L87.44-22.6Q87.04-13.8 87.04-7.75L87.04-7.75ZM115.39-16.05Q115.79-15.35 116.04-14.03 116.29-12.7 116.29-11.65L116.29-11.65Q116.29-9.7 115.44-6.1L115.44-6.1Q111.99 0.2 105.24 0.2L105.24 0.2Q102.74 0.2 100.14-1.45 97.54-3.1 96.54-5.25L96.54-5.25Q95.19-9.55 95.19-10.7L95.19-10.7Q95.19-12.7 96.07-14.95 96.94-17.2 98.29-18.85L98.29-18.85Q99.14-20 101.34-20.83 103.54-21.65 105.34-21.65L105.34-21.65Q108.84-21.65 111.29-20.33 113.74-19 115.39-16.05L115.39-16.05ZM111.04-8Q111.29-8.65 111.29-11.35L111.29-11.35Q111.29-12.8 110.77-14.2 110.24-15.6 109.24-16.6L109.24-16.6Q109.14-16.7 108.69-16.93 108.24-17.15 107.47-17.38 106.69-17.6 105.69-17.6L105.69-17.6Q102.89-17.6 101.59-15.35 100.29-13.1 100.29-10.25L100.29-10.25Q100.29-9.75 100.57-8.35 100.84-6.95 101.04-6.6L101.04-6.6Q101.19-6.25 101.82-5.63 102.44-5 103.37-4.53 104.29-4.05 105.29-4.05L105.29-4.05Q107.54-4.05 108.89-5.13 110.24-6.2 111.04-8L111.04-8ZM128.59-2Q128.59-1.15 127.94-0.5 127.29 0.15 126.34 0.15L126.34 0.15Q124.84 0.15 124.14-0.43 123.44-1 123.44-2.55L123.44-2.55Q123.44-4.4 123.34-7.4L123.34-7.4Q123.24-9.9 123.24-11.6L123.24-11.6Q123.24-12.4 123.34-13.7L123.34-13.7Q123.44-14.9 123.44-15.5L123.44-15.5Q123.29-16.45 122.69-17.07 122.09-17.7 121.14-17.7L121.14-17.7Q120.69-17.7 120.39-18.13 120.09-18.55 120.09-19L120.09-19Q120.09-20.15 121.01-20.75 121.94-21.35 123.24-21.35L123.24-21.35Q125.94-21.35 126.99-18.15L126.99-18.15Q128.29-19.65 129.96-20.58 131.64-21.5 133.19-21.5L133.19-21.5Q135.04-21.5 136.56-20.5 138.09-19.5 138.09-17.8L138.09-17.8Q138.09-16.85 137.26-15.85 136.44-14.85 135.59-14.85L135.59-14.85Q135.14-14.85 134.81-15.08 134.49-15.3 134.04-15.75L134.04-15.75Q133.54-16.25 133.19-16.48 132.84-16.7 132.39-16.7L132.39-16.7Q131.59-16.7 130.89-16.45 130.19-16.2 129.94-15.85L129.94-15.85Q129.14-14.6 128.76-13.6 128.39-12.6 128.39-11.45L128.39-11.45Q128.39-10.6 128.34-10.1L128.34-10.1 128.29-7.25Q128.29-6.6 128.34-5.8 128.39-5 128.44-4.6L128.44-4.6Q128.59-3.25 128.59-2L128.59-2ZM140.64-10.6Q140.64-12.5 141.34-14.43 142.04-16.35 143.19-17.95L143.19-17.95Q144.34-19.55 146.84-20.58 149.34-21.6 151.29-21.6L151.29-21.6Q153.29-21.6 155.36-21.05 157.44-20.5 158.24-19.35L158.24-19.35Q160.09-16.75 160.09-14.25L160.09-14.25Q160.09-12.9 159.51-11.95 158.94-11 157.89-9.9L157.89-9.9Q157.04-9 155.21-8.7 153.39-8.4 151.59-8.4L151.59-8.4Q150.44-8.4 148.79-8.63 147.14-8.85 145.59-9.2L145.59-9.2Q145.69-8.2 146.09-7.25 146.49-6.3 147.04-5.8L147.04-5.8Q148.04-4.85 149.11-4.6 150.19-4.35 151.89-4.35L151.89-4.35Q153.69-4.35 155.24-4.95L155.24-4.95Q156.49-5.4 157.29-5.4L157.29-5.4Q158.24-5.4 158.74-4.83 159.24-4.25 159.24-3.35L159.24-3.35Q159.24-2.1 157.79-1.3 156.34-0.5 154.46-0.13 152.59 0.25 151.44 0.25L151.44 0.25Q149.09 0.25 146.89-0.6 144.69-1.45 143.24-3L143.24-3Q142.04-4.4 141.34-6.38 140.64-8.35 140.64-10.6L140.64-10.6ZM151.54-17.35Q150.44-17.35 149.34-16.93 148.24-16.5 147.54-15.75L147.54-15.75Q146.64-14.8 146.31-14.23 145.99-13.65 145.89-12.65L145.89-12.65Q147.14-12.25 151.09-12.25L151.09-12.25Q153.24-12.25 154.41-12.9 155.59-13.55 155.59-14.6L155.59-14.6Q155.59-15.65 154.29-16.5 152.99-17.35 151.54-17.35L151.54-17.35ZM199.23-11.9Q199.53-13 199.88-14.9L199.88-14.9Q200.38-17.15 200.68-18.3 200.98-19.45 201.48-20.25L201.48-20.25Q202.03-21.15 202.46-21.45 202.88-21.75 203.38-21.75L203.38-21.75Q205.98-21.75 205.98-19.75L205.98-19.75Q205.98-18.75 205.18-16L205.18-16Q202.53-8 201.38-3.6L201.38-3.6Q200.88-1.75 199.88-0.78 198.88 0.2 197.18 0.2L197.18 0.2Q196.33 0.2 195.46-0.63 194.58-1.45 194.03-2.65L194.03-2.65 193.48-4Q192.08-7.55 191.41-9.47 190.73-11.4 190.53-12.95L190.53-12.95 190.08-11.35Q188.88-7.05 187.58-3.35L187.58-3.35Q186.93-1.45 185.98-0.63 185.03 0.2 183.53 0.2L183.53 0.2Q182.63 0.2 181.96-0.2 181.28-0.6 180.68-1.55L180.68-1.55Q179.88-2.85 179.16-5.05 178.43-7.25 177.08-11.9L177.08-11.9Q176.43-13.9 175.88-16.13 175.33-18.35 175.33-19.25L175.33-19.25Q175.33-20.3 175.88-20.9 176.43-21.5 177.48-21.5L177.48-21.5Q178.83-21.5 179.38-20.98 179.93-20.45 180.38-19.4L180.38-19.4Q180.63-17.6 181.48-14.3L181.48-14.3 182.58-9.6Q182.68-9.05 183.18-7.3L183.18-7.3 183.58-5.85Q184.68-8.2 185.43-10.35 186.18-12.5 187.08-15.65L187.08-15.65Q187.13-15.85 188.08-19.1L188.08-19.1Q188.73-20.15 189.23-20.68 189.73-21.2 190.23-21.2L190.23-21.2Q191.23-21.2 191.96-20.58 192.68-19.95 193.03-19.05L193.03-19.05Q193.63-17.1 194.08-15.5L194.08-15.5Q194.28-14.85 195.01-12.38 195.73-9.9 196.33-8.2 196.93-6.5 197.33-5.8L197.33-5.8 199.23-11.9ZM216.23-31.7Q216.23-30.4 216.18-28.68 216.13-26.95 216.08-26.05L216.08-26.05Q215.93-23.5 215.93-20.95L215.93-20.95Q215.93-19.05 216.08-17L216.08-17Q217.63-19.25 219.43-20.3 221.23-21.35 223.78-21.35L223.78-21.35Q225.63-21.35 227.23-19.7 228.83-18.05 229.28-15.85L229.28-15.85Q229.43-13.9 229.43-11.1L229.43-11.1Q229.43-9.3 229.63-6.4L229.63-6.4Q229.73-5.3 230.2-4.35 230.68-3.4 231.58-3.4L231.58-3.4Q232.03-3.4 232.3-3.45 232.58-3.5 232.83-3.5L232.83-3.5Q233.53-3.5 233.8-3.15 234.08-2.8 234.08-2.15L234.08-2.15Q234.08-0.95 232.88-0.35 231.68 0.25 230.68 0.25L230.68 0.25Q227.08 0.25 225.73-2.75L225.73-2.75Q224.98-4.45 224.78-7.18 224.58-9.9 224.58-13.55L224.58-13.55Q224.58-17.15 222.13-17.15L222.13-17.15Q220.78-17.15 219.4-15.73 218.03-14.3 217.13-11.98 216.23-9.65 216.23-7.15L216.23-7.15 216.28-1.95Q216.28-0.85 215.43-0.33 214.58 0.2 213.83 0.2L213.83 0.2Q212.73 0.2 211.83-0.48 210.93-1.15 210.93-2L210.93-2Q211.28-5.75 211.28-14.55L211.28-14.55Q211.28-16.15 211.03-26.4L211.03-26.4 210.88-31Q210.88-32.1 211.88-32.93 212.88-33.75 214.13-33.75L214.13-33.75Q215.23-33.75 215.73-33.25 216.23-32.75 216.23-31.7L216.23-31.7ZM259.83-2.4Q259.83-1.3 258.65-0.55 257.48 0.2 256.48 0.2L256.48 0.2Q254.58 0.2 253.45-0.28 252.33-0.75 251.38-2.05L251.38-2.05Q250.08-0.9 247.83-0.33 245.58 0.25 243.68 0.25L243.68 0.25Q240.58 0.25 238.58-1.43 236.58-3.1 236.58-6.35L236.58-6.35Q236.58-7.75 237.33-8.93 238.08-10.1 239.38-11L239.38-11Q240.83-11.95 242.68-12.48 244.53-13 246.53-13L246.53-13Q247.58-13 249.03-12.6 250.48-12.2 251.28-11.75L251.28-11.75 251.28-12.55Q251.28-15.25 249.98-16.28 248.68-17.3 245.78-17.3L245.78-17.3Q244.93-17.3 244.1-16.95 243.28-16.6 242.23-16L242.23-16Q240.83-15.25 239.58-15.25L239.58-15.25Q239.13-15.25 238.73-15.88 238.33-16.5 238.33-17L238.33-17Q238.33-18.45 239.7-19.5 241.08-20.55 242.98-21.08 244.88-21.6 246.38-21.6L246.38-21.6Q247.88-21.6 249.83-21.03 251.78-20.45 253.03-19.45L253.03-19.45Q254.53-18.15 255.35-16.43 256.18-14.7 256.18-12.65L256.18-12.65Q256.18-12 256.08-10.7L256.08-10.7Q255.98-9.3 255.98-8.3L255.98-8.3Q255.98-7.85 255.88-6.95L255.88-6.95Q255.78-5.85 255.78-5.2L255.78-5.2Q255.78-4.6 256.23-4.17 256.68-3.75 257.28-3.75L257.28-3.75 258.68-3.8Q259.23-3.8 259.53-3.4 259.83-3 259.83-2.4L259.83-2.4ZM243.73-3.7Q245.88-3.7 247.33-4.15 248.78-4.6 250.83-5.8L250.83-5.8Q251.03-6.65 251.08-8.05L251.08-8.05Q248.33-9.35 246.53-9.35L246.53-9.35Q244.48-9.35 242.88-8.6 241.28-7.85 241.28-5.95L241.28-5.95Q241.28-5 242.08-4.35 242.88-3.7 243.73-3.7L243.73-3.7ZM265.52-17.1L263.12-17.3Q262.42-17.4 262-17.9 261.57-18.4 261.57-19.1L261.57-19.1Q261.57-19.45 261.75-19.85 261.92-20.25 262.27-20.55L262.27-20.55Q262.92-21.2 265.77-21.2L265.77-21.2Q266.17-23.15 266.17-25.15L266.17-25.15Q266.17-25.9 266.12-26.45 266.07-27 266.07-27.3L266.07-27.3Q266.07-28.4 266.9-28.95 267.72-29.5 268.77-29.5L268.77-29.5Q270.07-29.5 270.55-28.85 271.02-28.2 271.02-26.45L271.02-26.45Q271.02-23.85 270.57-21.35L270.57-21.35Q271.37-21.35 272.77-21.45L272.77-21.45Q274.67-21.55 275.52-21.55L275.52-21.55Q276.37-21.55 277-21.13 277.62-20.7 277.62-19.95L277.62-19.95Q277.62-18 275.87-17.65L275.87-17.65Q274.02-17.2 270.12-17.1L270.12-17.1Q269.97-15.15 269.97-12.85L269.97-12.85Q269.97-9.25 270.42-6.95L270.42-6.95Q270.72-5.35 271.45-4.63 272.17-3.9 273.62-3.9L273.62-3.9Q274.47-3.9 275.37-4.35L275.37-4.35Q275.97-4.7 276.47-4.7L276.47-4.7Q277.17-4.7 277.5-4.25 277.82-3.8 277.82-3.05L277.82-3.05Q277.82-1.65 276.32-0.73 274.82 0.2 272.47 0.2L272.47 0.2Q271.02 0.2 269.55-0.5 268.07-1.2 267.07-2.25L267.07-2.25Q266.92-2.4 266.52-3.4 266.12-4.4 265.82-5.55L265.82-5.55Q265.32-7.9 265.32-12.15L265.32-12.15Q265.32-14 265.52-17.1L265.52-17.1ZM298.62 10.2Q296.72 10.2 295.44 9.58 294.17 8.95 293.54 8.08 292.92 7.2 292.92 6.55L292.92 6.55Q292.92 5.7 293.52 5.23 294.12 4.75 294.97 4.75L294.97 4.75Q295.47 4.75 295.92 5.05 296.37 5.35 296.42 5.4L296.42 5.4Q296.77 5.65 297.12 5.83 297.47 6 297.87 6L297.87 6Q298.97 6 299.67 4.55 300.37 3.1 301.07-0.15L301.07-0.15Q298.82-3.45 297.32-6.75L297.32-6.75 296.17-9.4Q295.92-10 294.79-12.53 293.67-15.05 292.57-17L292.57-17Q291.87-18.4 291.87-18.9L291.87-18.9Q291.87-20.15 292.74-20.75 293.62-21.35 294.77-21.35L294.77-21.35Q295.57-21.35 295.99-21.03 296.42-20.7 296.97-19.85L296.97-19.85Q298.42-17.45 300.12-12.65L300.12-12.65Q301.12-9.9 301.72-8.47 302.32-7.05 303.17-5.6L303.17-5.6Q304.02-7.55 305.32-12.25L305.32-12.25Q306.12-14.95 306.64-16.57 307.17-18.2 307.82-19.55L307.82-19.55Q308.27-20.45 308.94-21 309.62-21.55 310.47-21.55L310.47-21.55Q311.32-21.55 312.29-20.93 313.27-20.3 313.27-19.45L313.27-19.45Q313.27-18.95 312.92-18.25L312.92-18.25Q310.97-13.75 309.49-9.78 308.02-5.8 306.67-1.05L306.67-1.05Q305.87 1.6 304.99 4 304.12 6.4 303.77 6.95L303.77 6.95Q302.77 8.35 301.52 9.28 300.27 10.2 298.62 10.2L298.62 10.2ZM336.42-16.05Q336.82-15.35 337.07-14.03 337.32-12.7 337.32-11.65L337.32-11.65Q337.32-9.7 336.47-6.1L336.47-6.1Q333.02 0.2 326.27 0.2L326.27 0.2Q323.77 0.2 321.17-1.45 318.57-3.1 317.57-5.25L317.57-5.25Q316.22-9.55 316.22-10.7L316.22-10.7Q316.22-12.7 317.09-14.95 317.97-17.2 319.32-18.85L319.32-18.85Q320.17-20 322.37-20.83 324.57-21.65 326.37-21.65L326.37-21.65Q329.87-21.65 332.32-20.33 334.77-19 336.42-16.05L336.42-16.05ZM332.07-8Q332.32-8.65 332.32-11.35L332.32-11.35Q332.32-12.8 331.79-14.2 331.27-15.6 330.27-16.6L330.27-16.6Q330.17-16.7 329.72-16.93 329.27-17.15 328.49-17.38 327.72-17.6 326.72-17.6L326.72-17.6Q323.92-17.6 322.62-15.35 321.32-13.1 321.32-10.25L321.32-10.25Q321.32-9.75 321.59-8.35 321.87-6.95 322.07-6.6L322.07-6.6Q322.22-6.25 322.84-5.63 323.47-5 324.39-4.53 325.32-4.05 326.32-4.05L326.32-4.05Q328.57-4.05 329.92-5.13 331.27-6.2 332.07-8L332.07-8ZM341.26-16.85Q340.86-16.85 340.54-17.18 340.21-17.5 340.21-17.95L340.21-17.95Q340.21-19.1 341.21-20.1L341.21-20.1Q341.51-20.25 342.41-20.6 343.31-20.95 344.01-20.95L344.01-20.95Q345.91-20.95 347.11-19.93 348.31-18.9 348.31-17L348.31-17Q348.31-16.45 348.11-14.65L348.11-14.65Q347.91-12.55 347.91-11.4L347.91-11.4Q347.91-7.9 348.86-5.75L348.86-5.75Q349.21-5.05 349.96-4.65 350.71-4.25 351.31-4.25L351.31-4.25Q352.76-4.25 353.66-4.75 354.56-5.25 355.61-6.35L355.61-6.35Q356.66-7.45 356.99-8.85 357.31-10.25 357.46-12.7L357.46-12.7Q357.56-14.3 357.66-15.05L357.66-15.05Q357.91-17.45 357.91-19.15L357.91-19.15Q357.91-20.25 358.51-20.98 359.11-21.7 360.16-21.7L360.16-21.7Q360.76-21.7 361.54-21.33 362.31-20.95 362.56-20.45L362.56-20.45Q362.86-19.95 362.86-18.8L362.86-18.8Q362.86-18.2 362.71-17.65L362.71-17.65Q362.36-16.4 362.36-14.65L362.36-14.65 362.41-12.05Q362.41-8.5 362.91-6.8L362.91-6.8Q363.16-6 363.61-5.18 364.06-4.35 364.46-3.8L364.46-3.8Q365.46-2.7 365.76-2.27 366.06-1.85 366.06-1.45L366.06-1.45Q366.06-0.85 365.49-0.33 364.91 0.2 364.26 0.2L364.26 0.2Q362.41 0.2 361.06-1.05 359.71-2.3 359.06-4.3L359.06-4.3Q357.36-2.35 355.91-1.15L355.91-1.15Q354.91-0.45 353.46-0.13 352.01 0.2 350.56 0.2L350.56 0.2Q348.61 0.2 346.61-1.4 344.61-3 343.91-5.1L343.91-5.1Q343.86-5.2 343.64-5.9 343.41-6.6 343.41-8L343.41-8Q343.41-9.85 343.61-12.65L343.61-12.65Q343.76-14.45 343.76-15.95L343.76-15.95Q343.76-16.4 343.44-16.7 343.11-17 342.71-17L342.71-17Q342.41-17 342.04-16.93 341.66-16.85 341.26-16.85L341.26-16.85ZM403.91-3.85Q404.16-3.75 404.71-3.6 405.26-3.45 405.51-3.3 405.76-3.15 405.76-2.85L405.76-2.85Q405.81-1.65 404.88-0.88 403.96-0.1 402.71-0.1L402.71-0.1Q400.76-0.1 399.66-1.15 398.56-2.2 398.06-4.35L398.06-4.35Q397.86-5.2 397.86-6.7L397.86-6.7Q397.86-7.55 397.96-9.45L397.96-9.45Q398.06-11.45 398.06-12.65L398.06-12.65Q398.06-14.4 397.08-15.73 396.11-17.05 394.36-17.05L394.36-17.05Q393.31-17.05 392.16-16.43 391.01-15.8 390.56-14.9L390.56-14.9Q389.81-13.45 389.51-11.75L389.51-11.75Q388.96-8.75 388.96-5.5L388.96-5.5Q388.96-3.95 389.01-3.1L389.01-3.1Q389.01-2.9 389.03-2.33 389.06-1.75 388.93-1.28 388.81-0.8 388.51-0.4L388.51-0.4Q388.26-0.15 387.73 0.03 387.21 0.2 386.76 0.2L386.76 0.2Q386.06 0.2 385.01-0.4 383.96-1 383.81-1.75L383.81-1.75 383.76-2.6Q383.76-3.05 383.86-3.65L383.86-3.65Q384.46-7.15 384.46-9.75L384.46-9.75Q384.46-10.9 384.41-11.55L384.41-11.55 384.36-13.9Q384.36-15.1 383.76-16.23 383.16-17.35 382.36-17.35L382.36-17.35Q382.11-17.35 381.66-17.18 381.21-17 380.91-17L380.91-17Q380.41-17 379.83-17.5 379.26-18 379.26-18.55L379.26-18.55Q379.26-19.6 379.96-20.25L379.96-20.25Q380.71-20.85 381.43-21.2 382.16-21.55 383.11-21.55L383.11-21.55Q383.91-21.55 384.41-21.4 384.91-21.25 385.76-20.75L385.76-20.75Q386.21-20.5 386.81-19.65 387.41-18.8 387.81-17.25L387.81-17.25Q389.11-19.65 391.03-20.63 392.96-21.6 395.96-21.6L395.96-21.6Q397.11-21.6 398.43-20.85 399.76-20.1 400.71-19.1L400.71-19.1Q401.61-18 402.21-16.38 402.81-14.75 402.81-13.45L402.81-13.45Q402.81-12.7 402.71-11L402.71-11Q402.56-9.65 402.56-8.15L402.56-8.15Q402.56-4.65 403.91-3.85L403.91-3.85ZM408.96-10.6Q408.96-12.5 409.66-14.43 410.36-16.35 411.51-17.95L411.51-17.95Q412.66-19.55 415.16-20.58 417.66-21.6 419.61-21.6L419.61-21.6Q421.61-21.6 423.68-21.05 425.76-20.5 426.56-19.35L426.56-19.35Q428.41-16.75 428.41-14.25L428.41-14.25Q428.41-12.9 427.83-11.95 427.26-11 426.21-9.9L426.21-9.9Q425.36-9 423.53-8.7 421.71-8.4 419.91-8.4L419.91-8.4Q418.76-8.4 417.11-8.63 415.46-8.85 413.91-9.2L413.91-9.2Q414.01-8.2 414.41-7.25 414.81-6.3 415.36-5.8L415.36-5.8Q416.36-4.85 417.43-4.6 418.51-4.35 420.21-4.35L420.21-4.35Q422.01-4.35 423.56-4.95L423.56-4.95Q424.81-5.4 425.61-5.4L425.61-5.4Q426.56-5.4 427.06-4.83 427.56-4.25 427.56-3.35L427.56-3.35Q427.56-2.1 426.11-1.3 424.66-0.5 422.78-0.13 420.91 0.25 419.76 0.25L419.76 0.25Q417.41 0.25 415.21-0.6 413.01-1.45 411.56-3L411.56-3Q410.36-4.4 409.66-6.38 408.96-8.35 408.96-10.6L408.96-10.6ZM419.86-17.35Q418.76-17.35 417.66-16.93 416.56-16.5 415.86-15.75L415.86-15.75Q414.96-14.8 414.63-14.23 414.31-13.65 414.21-12.65L414.21-12.65Q415.46-12.25 419.41-12.25L419.41-12.25Q421.56-12.25 422.73-12.9 423.91-13.55 423.91-14.6L423.91-14.6Q423.91-15.65 422.61-16.5 421.31-17.35 419.86-17.35L419.86-17.35ZM432.8-10.6Q432.8-12.5 433.5-14.43 434.2-16.35 435.35-17.95L435.35-17.95Q436.5-19.55 439-20.58 441.5-21.6 443.45-21.6L443.45-21.6Q445.45-21.6 447.53-21.05 449.6-20.5 450.4-19.35L450.4-19.35Q452.25-16.75 452.25-14.25L452.25-14.25Q452.25-12.9 451.68-11.95 451.1-11 450.05-9.9L450.05-9.9Q449.2-9 447.38-8.7 445.55-8.4 443.75-8.4L443.75-8.4Q442.6-8.4 440.95-8.63 439.3-8.85 437.75-9.2L437.75-9.2Q437.85-8.2 438.25-7.25 438.65-6.3 439.2-5.8L439.2-5.8Q440.2-4.85 441.28-4.6 442.35-4.35 444.05-4.35L444.05-4.35Q445.85-4.35 447.4-4.95L447.4-4.95Q448.65-5.4 449.45-5.4L449.45-5.4Q450.4-5.4 450.9-4.83 451.4-4.25 451.4-3.35L451.4-3.35Q451.4-2.1 449.95-1.3 448.5-0.5 446.63-0.13 444.75 0.25 443.6 0.25L443.6 0.25Q441.25 0.25 439.05-0.6 436.85-1.45 435.4-3L435.4-3Q434.2-4.4 433.5-6.38 432.8-8.35 432.8-10.6L432.8-10.6ZM443.7-17.35Q442.6-17.35 441.5-16.93 440.4-16.5 439.7-15.75L439.7-15.75Q438.8-14.8 438.48-14.23 438.15-13.65 438.05-12.65L438.05-12.65Q439.3-12.25 443.25-12.25L443.25-12.25Q445.4-12.25 446.58-12.9 447.75-13.55 447.75-14.6L447.75-14.6Q447.75-15.65 446.45-16.5 445.15-17.35 443.7-17.35L443.7-17.35ZM477-31.3Q477-30.8 476.75-28.55L476.75-28.55Q476.2-23.05 476.2-17.4L476.2-17.4Q476.2-12.45 476.35-9.85 476.5-7.25 477.1-5.88 477.7-4.5 478.95-4.5L478.95-4.5Q481.35-4.5 481.35-2.9L481.35-2.9Q481.35-1.85 480.3-1.13 479.25-0.4 478-0.4L478-0.4Q476.5-0.4 475.2-1.1 473.9-1.8 473.15-3.25L473.15-3.25Q472.1-1.7 470.13-0.78 468.15 0.15 466.3 0.15L466.3 0.15Q463.45 0.15 461.25-1.05 459.05-2.25 457.85-4.33 456.65-6.4 456.65-8.9L456.65-8.9Q456.65-11.3 457.23-13.53 457.8-15.75 458.8-17.2L458.8-17.2Q460.15-19.1 462.43-20.23 464.7-21.35 466.9-21.35L466.9-21.35Q468.25-21.35 469.45-20.83 470.65-20.3 471.55-19.55L471.55-19.55Q471.55-22.9 471.5-23.75L471.5-23.75 471.5-24.8Q471.5-29.45 472.1-31.6L472.1-31.6Q472.65-33.7 474.75-33.7L474.75-33.7Q475.9-33.7 476.45-33.2 477-32.7 477-31.3L477-31.3ZM461.6-9Q461.6-6.7 462.93-5.3 464.25-3.9 466.1-3.9L466.1-3.9Q468.75-3.9 470.03-5.55 471.3-7.2 471.3-9.8L471.3-9.8 471.25-14.75Q469.3-16.9 467.2-16.9L467.2-16.9Q465.75-16.9 464.48-16.18 463.2-15.45 462.45-14L462.45-14Q461.6-12.35 461.6-9L461.6-9Z" opacity="1" transform="matrix(1,0,0,1,0,0)" fill="#ff585f" class="slogan-text-1" data-fill-palette-color="secondary" id="text-1"></path></svg></g></svg></g></svg></g></svg></g><g transform="matrix(1,0,0,1,443.7499263644274,0)"><svg viewBox="0 0 226.6752805299326 226.6752805299326" height="226.6752805299326" width="226.6752805299326"><g><svg></svg></g><g id="icon-0"><svg viewBox="0 0 226.6752805299326 226.6752805299326" height="226.6752805299326" width="226.6752805299326"><g><path d="M0 113.338c0-62.595 50.743-113.338 113.338-113.338 62.595 0 113.338 50.743 113.337 113.338 0 62.595-50.743 113.338-113.337 113.337-62.595 0-113.338-50.743-113.338-113.337zM113.338 217.463c57.507 0 104.126-46.619 104.125-104.125 0-57.507-46.619-104.126-104.125-104.126-57.507 0-104.126 46.619-104.126 104.126 0 57.507 46.619 104.126 104.126 104.125z" data-fill-palette-color="accent" fill="#ff585f" stroke="transparent"></path></g><g transform="matrix(1,0,0,1,65.66671237076851,48.35158810524682)"><svg viewBox="0 0 95.34185578839558 129.97210431943896" height="129.97210431943896" width="95.34185578839558"><g><svg xmlns="http://www.w3.org/2000/svg" xmlns:xlink="http://www.w3.org/1999/xlink" version="1.1" x="0" y="0" viewBox="42.1 30.099999999999998 65.80000000000001 89.70000000000002" style="enable-background:new 0 0 150 150;" xml:space="preserve" height="129.97210431943896" width="95.34185578839558" class="icon-cg-0" data-fill-palette-color="accent" id="cg-0"><g fill="#ff585f" data-fill-palette-color="accent"><path d="M48.4 88h13.1c3.5 0 6.3-2.5 6.3-5.7V35.8c0-3.1-2.8-5.7-6.3-5.7H48.4c-3.5 0-6.3 2.5-6.3 5.7v46.6C42.1 85.5 44.9 88 48.4 88zM44.1 35.8c0-2 1.9-3.7 4.3-3.7h13.1c2.4 0 4.3 1.6 4.3 3.7v46.6c0 2-1.9 3.7-4.3 3.7H48.4c-2.4 0-4.3-1.6-4.3-3.7V35.8z" fill="#ff585f" data-fill-palette-color="accent"></path><path d="M106.9 93.9H43.1c-0.6 0-1 0.4-1 1v23.9c0 0.6 0.4 1 1 1h63.8c0.6 0 1-0.4 1-1V94.9C107.9 94.4 107.5 93.9 106.9 93.9zM105.9 117.9H44.1V95.9h61.8V117.9z" fill="#ff585f" data-fill-palette-color="accent"></path><path d="M102.7 60.4H79.2c-2.9 0-5.2 2.4-5.2 5.3v17.1c0 2.9 2.4 5.3 5.2 5.3h23.4c2.9 0 5.2-2.4 5.2-5.3V65.7C107.9 62.8 105.6 60.4 102.7 60.4zM105.9 82.7c0 1.8-1.5 3.3-3.2 3.3H79.2c-1.8 0-3.2-1.5-3.2-3.3V65.7c0-1.8 1.5-3.3 3.2-3.3h23.4c1.8 0 3.2 1.5 3.2 3.3V82.7z" fill="#ff585f" data-fill-palette-color="accent"></path><path d="M96.9 74.1c-2.5 0-4.6 2.1-4.6 4.6 0 2.5 2.1 4.6 4.6 4.6 2.5 0 4.6-2.1 4.6-4.6C101.5 76.2 99.4 74.1 96.9 74.1zM96.9 81.3c-1.4 0-2.6-1.2-2.6-2.6 0-1.4 1.2-2.6 2.6-2.6 1.4 0 2.6 1.2 2.6 2.6C99.5 80.2 98.3 81.3 96.9 81.3z" fill="#ff585f" data-fill-palette-color="accent"></path><path d="M88.8 74.4h-8.7c-0.6 0-1 0.4-1 1s0.4 1 1 1h8.7c0.6 0 1-0.4 1-1S89.4 74.4 88.8 74.4z" fill="#ff585f" data-fill-palette-color="accent"></path><path d="M88.8 77.7h-8.7c-0.6 0-1 0.4-1 1s0.4 1 1 1h8.7c0.6 0 1-0.4 1-1S89.4 77.7 88.8 77.7z" fill="#ff585f" data-fill-palette-color="accent"></path><path d="M88.8 81h-8.7c-0.6 0-1 0.4-1 1s0.4 1 1 1h8.7c0.6 0 1-0.4 1-1S89.4 81 88.8 81z" fill="#ff585f" data-fill-palette-color="accent"></path><path d="M102.3 65.1H79.6c-0.6 0-1 0.4-1 1v4.4c0 0.6 0.4 1 1 1h22.7c0.6 0 1-0.4 1-1v-4.4C103.3 65.5 102.8 65.1 102.3 65.1zM80.6 67.1h7.8v2.4h-7.8V67.1zM101.3 69.5H90.4v-2.4h10.9V69.5z" fill="#ff585f" data-fill-palette-color="accent"></path><path d="M106.9 34.2h-5v-3.1c0-0.6-0.4-1-1-1h-3.8c-0.6 0-1 0.4-1 1v3.1h-6.5v-3.1c0-0.6-0.4-1-1-1h-3.8c-0.6 0-1 0.4-1 1v3.1h-5c-0.6 0-1 0.4-1 1v11.4h-2.8c-0.6 0-1 0.4-1 1v4.1c0 0.6 0.4 1 1 1h2.8v2.4c0 0.6 0.4 1 1 1h28c0.6 0 1-0.4 1-1V35.2C107.9 34.7 107.5 34.2 106.9 34.2zM105.9 54.1h-26v-2.4c0-0.6-0.4-1-1-1h-2.8v-2.1h2.8c0.6 0 1-0.4 1-1V36.2h5c0.6 0 1-0.4 1-1v-3.1h1.8v3.1c0 0.6 0.4 1 1 1h8.5c0.6 0 1-0.4 1-1v-3.1h1.8v3.1c0 0.6 0.4 1 1 1h5V54.1z" fill="#ff585f" data-fill-palette-color="accent"></path><path d="M97.8 39c-0.3 0-0.5 0.2-0.5 0.5v4.1c0 0.3 0.2 0.5 0.5 0.5h2.3v2c-0.4 0.1-0.6 0.4-0.7 0.7h-4.9v-3.3c0.4-0.1 0.8-0.5 0.8-1V42c0-0.6-0.4-1-1-1h-0.5c-0.5 0-0.9 0.3-1 0.8H87c-0.3 0-0.5 0.2-0.5 0.5v7.2c-0.4 0.1-0.6 0.4-0.7 0.7h-1.9v-8.8c0.4-0.1 0.8-0.5 0.8-1v-0.6c0-0.6-0.4-1-1-1H83c-0.6 0-1 0.4-1 1v0.6c0 0.5 0.3 0.8 0.8 1v9.3c0 0.3 0.2 0.5 0.5 0.5h2.4c0.1 0.4 0.5 0.8 1 0.8h0.5c0.6 0 1-0.4 1-1v-0.6c0-0.5-0.3-0.8-0.8-1v-6.7h5.3c0.1 0.4 0.4 0.7 0.7 0.7v3.8c0 0.3 0.2 0.5 0.5 0.5h5.4c0.1 0.4 0.5 0.8 1 0.8h0.5c0.6 0 1-0.4 1-1V47c0-0.5-0.3-0.8-0.8-1v-2.5c0-0.3-0.2-0.5-0.5-0.5h-2.3V40h3.1c0.1 0.4 0.5 0.8 1 0.8h0.5c0.6 0 1-0.4 1-1v-0.6c0-0.6-0.4-1-1-1h-0.5c-0.5 0-0.9 0.3-1 0.8H97.8z" fill="#ff585f" data-fill-palette-color="accent"></path><path d="M50.6 114c0.6 0 1-0.4 1-1v-12.1c0-0.6-0.4-1-1-1s-1 0.4-1 1V113C49.6 113.5 50.1 114 50.6 114z" fill="#ff585f" data-fill-palette-color="accent"></path><path d="M56 114c0.6 0 1-0.4 1-1v-12.1c0-0.6-0.4-1-1-1s-1 0.4-1 1V113C55 113.5 55.5 114 56 114z" fill="#ff585f" data-fill-palette-color="accent"></path><path d="M61.4 114c0.6 0 1-0.4 1-1v-12.1c0-0.6-0.4-1-1-1s-1 0.4-1 1V113C60.4 113.5 60.9 114 61.4 114z" fill="#ff585f" data-fill-palette-color="accent"></path><path d="M66.9 114c0.6 0 1-0.4 1-1v-12.1c0-0.6-0.4-1-1-1s-1 0.4-1 1V113C65.9 113.5 66.3 114 66.9 114z" fill="#ff585f" data-fill-palette-color="accent"></path><path d="M72.3 114c0.6 0 1-0.4 1-1v-12.1c0-0.6-0.4-1-1-1s-1 0.4-1 1V113C71.3 113.5 71.7 114 72.3 114z" fill="#ff585f" data-fill-palette-color="accent"></path><path d="M77.7 114c0.6 0 1-0.4 1-1v-12.1c0-0.6-0.4-1-1-1s-1 0.4-1 1V113C76.7 113.5 77.2 114 77.7 114z" fill="#ff585f" data-fill-palette-color="accent"></path><path d="M83.1 114c0.6 0 1-0.4 1-1v-12.1c0-0.6-0.4-1-1-1s-1 0.4-1 1V113C82.1 113.5 82.6 114 83.1 114z" fill="#ff585f" data-fill-palette-color="accent"></path><path d="M88.5 114h10.8c0.6 0 1-0.4 1-1v-12.1c0-0.6-0.4-1-1-1H88.5c-0.6 0-1 0.4-1 1V113C87.5 113.5 88 114 88.5 114zM89.5 112v-4.6h1.6c0.2 0 0.4-0.1 0.5-0.3l0.6-1.5 1.3 4.5c0.1 0.2 0.2 0.3 0.5 0.4 0 0 0 0 0 0 0.2 0 0.4-0.1 0.5-0.3l1.1-2.7h2.8v4.6H89.5zM98.4 101.9v4.6h-3.2c-0.2 0-0.4 0.1-0.5 0.3l-0.7 1.7-1.4-4.5c-0.1-0.2-0.2-0.3-0.5-0.4-0.2 0-0.4 0.1-0.5 0.3l-1 2.5h-1.2v-4.6H98.4z" fill="#ff585f" data-fill-palette-color="accent"></path><path d="M48.9 53.1H61c0.6 0 1-0.4 1-1s-0.4-1-1-1H48.9c-0.6 0-1 0.4-1 1S48.4 53.1 48.9 53.1z" fill="#ff585f" data-fill-palette-color="accent"></path><path d="M55.2 72.9c-0.8 0-1.2 0.7-1.2 2 0 1.4 0.4 2 1.2 2 0.8 0 1.2-0.7 1.2-2C56.4 73.6 56 72.9 55.2 72.9z" fill="#ff585f" data-fill-palette-color="accent"></path><path d="M48.9 49.4H61c0.6 0 1-0.4 1-1s-0.4-1-1-1H48.9c-0.6 0-1 0.4-1 1S48.4 49.4 48.9 49.4z" fill="#ff585f" data-fill-palette-color="accent"></path><path d="M48.9 43.3H61c0.4 0 0.8-0.3 0.8-0.8v-2.3c0-0.4-0.3-0.8-0.8-0.8H48.9c-0.4 0-0.8 0.3-0.8 0.8v2.3C48.2 42.9 48.5 43.3 48.9 43.3zM49.7 41h10.6v0.8H49.7V41z" fill="#ff585f" data-fill-palette-color="accent"></path></g></svg></g></svg></g></svg></g></svg></g></svg></g><defs></defs></svg><rect width="395.52" height="133.7279774585295" fill="none" stroke="none" visibility="hidden"></rect></g></svg></g></svg>